<svg width="157" height="157" viewBox="0 0 157 157" fill="none" xmlns="http://www.w3.org/2000/svg">
<g id="calendar_month">
<mask id="mask0_5824_16735" style="mask-type:alpha" maskUnits="userSpaceOnUse" x="0" y="0" width="157" height="157">
<rect id="Bounding box" width="157" height="157" fill="#D9D9D9"/>
</mask>
<g mask="url(#mask0_5824_16735)">
<path id="calendar_month_2" d="M78.5003 107.242C77.15 107.242 75.9738 106.702 74.9716 105.621C73.9694 104.54 73.4683 103.271 73.4683 101.815C73.4683 100.359 73.9694 99.0903 74.9716 98.0094C75.9738 96.9284 77.15 96.3879 78.5003 96.3879C79.8506 96.3879 81.0269 96.9284 82.0291 98.0094C83.0312 99.0903 83.5323 100.359 83.5323 101.815C83.5323 103.271 83.0312 104.54 82.0291 105.621C81.0269 106.702 79.8506 107.242 78.5003 107.242ZM52.3337 107.242C50.9834 107.242 49.8071 106.702 48.8049 105.621C47.8027 104.54 47.3016 103.271 47.3016 101.815C47.3016 100.359 47.8027 99.0903 48.8049 98.0094C49.8071 96.9284 50.9834 96.3879 52.3337 96.3879C53.684 96.3879 54.8602 96.9284 55.8624 98.0094C56.8646 99.0903 57.3657 100.359 57.3657 101.815C57.3657 103.271 56.8646 104.54 55.8624 105.621C54.8602 106.702 53.684 107.242 52.3337 107.242ZM104.667 107.242C103.317 107.242 102.14 106.702 101.138 105.621C100.136 104.54 99.635 103.271 99.635 101.815C99.635 100.359 100.136 99.0903 101.138 98.0094C102.14 96.9284 103.317 96.3879 104.667 96.3879C106.017 96.3879 107.194 96.9284 108.196 98.0094C109.198 99.0903 109.699 100.359 109.699 101.815C109.699 103.271 109.198 104.54 108.196 105.621C107.194 106.702 106.017 107.242 104.667 107.242ZM78.5003 134.378C77.15 134.378 75.9738 133.838 74.9716 132.757C73.9694 131.676 73.4683 130.407 73.4683 128.951C73.4683 127.495 73.9694 126.226 74.9716 125.145C75.9738 124.064 77.15 123.524 78.5003 123.524C79.8506 123.524 81.0269 124.064 82.0291 125.145C83.0312 126.226 83.5323 127.495 83.5323 128.951C83.5323 130.407 83.0312 131.676 82.0291 132.757C81.0269 133.838 79.8506 134.378 78.5003 134.378ZM52.3337 134.378C50.9834 134.378 49.8071 133.838 48.8049 132.757C47.8027 131.676 47.3016 130.407 47.3016 128.951C47.3016 127.495 47.8027 126.226 48.8049 125.145C49.8071 124.064 50.9834 123.524 52.3337 123.524C53.684 123.524 54.8602 124.064 55.8624 125.145C56.8646 126.226 57.3657 127.495 57.3657 128.951C57.3657 130.407 56.8646 131.676 55.8624 132.757C54.8602 133.838 53.684 134.378 52.3337 134.378ZM104.667 134.378C103.317 134.378 102.14 133.838 101.138 132.757C100.136 131.676 99.635 130.407 99.635 128.951C99.635 127.495 100.136 126.226 101.138 125.145C102.14 124.064 103.317 123.524 104.667 123.524C106.017 123.524 107.194 124.064 108.196 125.145C109.198 126.226 109.699 127.495 109.699 128.951C109.699 130.407 109.198 131.676 108.196 132.757C107.194 133.838 106.017 134.378 104.667 134.378ZM36.7342 155.545C33.7234 155.545 31.2095 154.457 29.1925 152.281C27.1755 150.106 26.167 147.395 26.167 144.147V54.0557C26.167 50.8084 27.1755 48.0971 29.1925 45.9217C31.2095 43.7463 33.7234 42.6586 36.7342 42.6586H48.3079V26.9197H55.3528V42.6586H102.151V26.9197H108.693V42.6586H120.266C123.277 42.6586 125.791 43.7463 127.808 45.9217C129.825 48.0971 130.834 50.8084 130.834 54.0557V144.147C130.834 147.395 129.825 150.106 127.808 152.281C125.791 154.457 123.277 155.545 120.266 155.545H36.7342ZM36.7342 148.489H120.266C121.273 148.489 122.195 148.037 123.034 147.132C123.873 146.228 124.292 145.233 124.292 144.147V82.2772H32.7087V144.147C32.7087 145.233 33.128 146.228 33.9666 147.132C34.8054 148.037 35.7279 148.489 36.7342 148.489Z" fill="#4D9588"/>
</g>
</g>
</svg>
