<svg width="157" height="157" viewBox="0 0 157 157" fill="none" xmlns="http://www.w3.org/2000/svg">
<g id="cancel">
<mask id="mask0_6254_5986" style="mask-type:alpha" maskUnits="userSpaceOnUse" x="0" y="0" width="157" height="157">
<rect id="Bounding box" width="157" height="157" fill="#D9D9D9"/>
</mask>
<g mask="url(#mask0_6254_5986)">
<path id="cancel_2" d="M55.325 107.055L78.875 83.5045L102.425 107.055L107.055 102.425L83.5045 78.875L107.055 55.325L102.425 50.6955L78.875 74.2455L55.325 50.6955L50.6955 55.325L74.2455 78.875L50.6955 102.425L55.325 107.055ZM78.8969 137.75C70.7555 137.75 63.1012 136.205 55.934 133.115C48.7669 130.026 42.5324 125.832 37.2306 120.535C31.9289 115.239 27.7317 109.01 24.639 101.85C21.5463 94.6891 20 87.0382 20 78.8969C20 70.7555 21.5449 63.1012 24.6346 55.934C27.7245 48.7669 31.9178 42.5324 37.2146 37.2306C42.5113 31.9289 48.7399 27.7317 55.9003 24.639C63.0608 21.5463 70.7118 20 78.8531 20C86.9945 20 94.6488 21.5449 101.816 24.6346C108.983 27.7245 115.218 31.9178 120.519 37.2146C125.821 42.5113 130.018 48.7399 133.111 55.9003C136.204 63.0608 137.75 70.7118 137.75 78.8531C137.75 86.9945 136.205 94.6488 133.115 101.816C130.026 108.983 125.832 115.218 120.535 120.519C115.239 125.821 109.01 130.018 101.85 133.111C94.6891 136.204 87.0382 137.75 78.8969 137.75ZM78.875 131.208C93.4847 131.208 105.859 126.139 115.999 115.999C126.139 105.859 131.208 93.4847 131.208 78.875C131.208 64.2653 126.139 51.8906 115.999 41.751C105.859 31.6115 93.4847 26.5417 78.875 26.5417C64.2653 26.5417 51.8906 31.6115 41.751 41.751C31.6115 51.8906 26.5417 64.2653 26.5417 78.875C26.5417 93.4847 31.6115 105.859 41.751 115.999C51.8906 126.139 64.2653 131.208 78.875 131.208Z" fill="#BA1A1A"/>
</g>
</g>
</svg>
