<svg width="91" height="55" viewBox="0 0 91 55" fill="none" xmlns="http://www.w3.org/2000/svg">
<g id="Layer 1">
<g id="Group">
<path id="Vector" d="M65.458 31.1538L63.1509 33.4655L60.7383 31.0529L63.1509 28.7412L65.458 31.1538Z" fill="#FF94A9"/>
<path id="Vector_2" d="M75.9143 4.19617e-05L66.9648 5.16699L67.6873 6.41824L76.6367 1.25129L75.9143 4.19617e-05Z" fill="#FF94A9"/>
<path id="Vector_3" d="M86.0102 33.5527V47.1524C86.0102 50.0145 84.0654 50.7759 78.8136 50.7759C73.5618 50.7759 71.7547 50.0145 71.7547 47.1524V46.1571H67.6816V47.9275C67.6816 51.5648 70.3374 55.0003 78.8136 55.0003C87.2899 55.0003 90.0878 51.5648 90.0878 47.9275V33.5527H86.0148H86.0102Z" fill="#204B4B"/>
<path id="Vector_4" d="M36.6571 33.5524V47.1521C36.6571 50.0142 34.7124 50.7756 29.4606 50.7756C24.2088 50.7756 22.4383 50.028 22.4016 47.2347V42.0608H18.3286V47.2347C18.2919 50.028 16.4709 50.7756 11.2696 50.7756C6.06824 50.7756 4.07302 50.0142 4.07302 47.1521V33.5524H0V47.9272C0 51.5645 2.79791 54.9954 11.2742 54.9954C15.8105 54.9954 18.6817 54.0093 20.3697 52.5369C22.0576 54.0093 24.9243 54.9954 29.4651 54.9954C37.9368 54.9954 40.7393 51.5599 40.7393 47.9227V33.5479H36.6663L36.6571 33.5524Z" fill="#204B4B"/>
<path id="Vector_5" d="M54.1418 5.44043C45.6701 5.44043 43.0098 8.87589 43.0098 12.5132V14.2836H47.0828V13.2883C47.0828 10.4262 48.8899 9.66481 54.1418 9.66481C59.3936 9.66481 61.3383 10.4262 61.3383 13.2883V22.7737H0V26.8788H65.4159V12.5132C65.4159 8.87589 62.618 5.44043 54.1418 5.44043Z" fill="#204B4B"/>
<path id="Vector_6" d="M90.0831 19.8794C90.0831 18.8658 90.0831 17.8475 90.0785 16.8339C90.0785 13.3434 89.0786 10.1051 86.3403 7.95854C83.5883 5.80277 79.9694 4.97716 76.4009 5.69728C70.695 6.84855 67.3008 11.8756 67.7274 17.6686C68.1127 22.9067 72.227 26.5577 77.7861 26.8421C79.3547 26.9201 80.8454 26.8696 82.2948 26.865C82.9737 26.865 83.6754 26.8559 84.3635 26.865V22.7691C84.0561 22.7691 83.7534 22.7691 83.4553 22.7737C81.1711 22.8241 78.997 22.8241 76.855 22.6131C75.4698 22.4755 74.1167 21.6912 73.1397 20.4665C72.0481 19.0997 71.5573 17.3155 71.7545 15.4441C71.9059 14.0268 72.6214 12.6553 73.7727 11.5683C74.9331 10.4766 76.4101 9.8024 77.9283 9.67856C78.1943 9.65563 78.4603 9.64645 78.7172 9.64645C80.6482 9.64645 82.3866 10.2473 83.68 11.3756C85.134 12.6416 86.0009 14.5084 86.0147 16.6275C86.0239 18.1548 86.0147 19.696 86.0147 21.1867C86.0147 21.682 86.0147 22.2645 86.0147 22.7599V26.865V30.273H90.0739C90.0739 29.452 90.0648 27.8787 90.0739 27.0347C90.0969 24.6496 90.0877 22.2233 90.0831 19.8794Z" fill="#204B4B"/>
<path id="Vector_7" d="M65.3982 54.9957C65.4211 52.629 65.4119 50.2209 65.4073 47.8954C65.4073 46.8864 65.4073 45.8773 65.4027 44.8728C65.4027 41.4052 64.4028 38.1945 61.6646 36.0617C58.9125 33.9197 55.2936 33.1032 51.7251 33.8188C46.0192 34.9609 42.625 39.9512 43.0516 45.703C43.4369 50.8998 47.5512 54.6563 53.1103 54.9361C54.679 55.014 56.1788 55.0003 57.6236 54.9957C58.3025 54.9957 59.0043 54.9865 59.6923 54.9957L59.6831 50.8906C59.3758 50.8906 59.0731 50.8906 58.7749 50.8952C56.4907 50.9456 54.3166 50.9456 52.1746 50.7346C50.7894 50.597 49.4363 49.6889 48.4594 48.4734C47.3677 47.1157 46.8769 45.3452 47.0742 43.4876C47.2255 42.0841 47.9411 40.7172 49.0923 39.6439C50.2528 38.5569 51.7297 37.8918 53.2479 37.7679C53.5139 37.745 53.78 37.7358 54.0368 37.7358C55.9678 37.7358 57.7062 38.3321 58.9997 39.4513C60.4537 40.708 61.3206 42.5611 61.3343 44.6618C61.3435 46.1754 61.3343 47.7074 61.3343 49.1843C61.3343 49.6751 61.3343 50.2576 61.3343 50.7438V54.8168V54.9865" fill="#204B4B"/>
</g>
</g>
</svg>
