<svg width="157" height="157" viewBox="0 0 157 157" fill="none" xmlns="http://www.w3.org/2000/svg">
<g id="task_alt">
<mask id="mask0_5824_16659" style="mask-type:alpha" maskUnits="userSpaceOnUse" x="0" y="0" width="157" height="157">
<rect id="Bounding box" width="157" height="157" fill="#064C4C"/>
</mask>
<g mask="url(#mask0_5824_16659)">
<path id="task_alt_2" d="M78.5219 137.375C70.3805 137.375 62.7262 135.83 55.559 132.74C48.3919 129.651 42.1574 125.457 36.8556 120.16C31.5539 114.864 27.3567 108.635 24.264 101.475C21.1713 94.3141 19.625 86.6632 19.625 78.5219C19.625 70.3805 21.1705 62.7262 24.2614 55.559C27.3523 48.3919 31.5472 42.1574 36.8459 36.8556C42.1447 31.5539 48.3756 27.3567 55.5387 24.264C62.7019 21.1713 70.3556 19.625 78.5 19.625C85.1953 19.625 91.53 20.6608 97.5042 22.7323C103.478 24.8038 108.927 27.6931 113.85 31.4L109.145 36.2685C104.834 33.0648 100.093 30.5802 94.9201 28.8147C89.7475 27.0494 84.2741 26.1667 78.5 26.1667C63.9993 26.1667 51.6519 31.2637 41.4578 41.4578C31.2637 51.6519 26.1667 63.9993 26.1667 78.5C26.1667 93.0007 31.2637 105.348 41.4578 115.542C51.6519 125.736 63.9993 130.833 78.5 130.833C93.0007 130.833 105.348 125.736 115.542 115.542C125.736 105.348 130.833 93.0007 130.833 78.5C130.833 75.8665 130.64 73.2837 130.255 70.7516C129.869 68.2194 129.29 65.7576 128.519 63.3662L133.739 58.0195C134.939 61.2568 135.844 64.5781 136.457 67.9835C137.069 71.3888 137.375 74.8943 137.375 78.5C137.375 86.6444 135.83 94.2981 132.74 101.461C129.651 108.624 125.457 114.855 120.16 120.154C114.864 125.453 108.635 129.648 101.475 132.739C94.3141 135.83 86.6632 137.375 78.5219 137.375ZM69.0901 104.063L45.8169 80.7896L50.4464 76.16L69.0901 94.8038L132.745 31.1107L137.375 35.7401L69.0901 104.063Z" fill="#064C4C"/>
</g>
</g>
</svg>
