<svg width="147" height="147" viewBox="0 0 147 147" fill="none" xmlns="http://www.w3.org/2000/svg">
<g id="today">
<mask id="mask0_5824_16791" style="mask-type:alpha" maskUnits="userSpaceOnUse" x="0" y="0" width="147" height="147">
<rect id="Bounding box" width="147" height="147" fill="#D9D9D9"/>
</mask>
<g mask="url(#mask0_5824_16791)">
<path id="today_2" d="M55.125 86.0164C51.5442 86.0164 48.4896 84.9068 45.9611 82.6876C43.4326 80.4685 42.1683 77.7876 42.1683 74.645C42.1683 71.5024 43.4326 68.8215 45.9611 66.6024C48.4896 64.3833 51.5442 63.2737 55.125 63.2737C58.7058 63.2737 61.7604 64.3833 64.2889 66.6024C66.8174 68.8215 68.0817 71.5024 68.0817 74.645C68.0817 77.7876 66.8174 80.4685 64.2889 82.6876C61.7604 84.9068 58.7058 86.0164 55.125 86.0164ZM34.3942 114.961C31.5751 114.961 29.2214 114.133 27.3328 112.475C25.4443 110.818 24.5 108.752 24.5 106.278V37.6365C24.5 35.1624 25.4443 33.0966 27.3328 31.4392C29.2214 29.7817 31.5751 28.953 34.3942 28.953H45.2307V16.9614H51.8268V28.953H95.6442V16.9614H101.769V28.953H112.606C115.425 28.953 117.779 29.7817 119.667 31.4392C121.556 33.0966 122.5 35.1624 122.5 37.6365V106.278C122.5 108.752 121.556 110.818 119.667 112.475C117.779 114.133 115.425 114.961 112.606 114.961H34.3942ZM34.3942 109.586H112.606C113.548 109.586 114.412 109.241 115.197 108.552C115.982 107.863 116.375 107.105 116.375 106.278V59.1386H30.625V106.278C30.625 107.105 31.0176 107.863 31.8028 108.552C32.5882 109.241 33.4519 109.586 34.3942 109.586Z" fill="#4D9588"/>
</g>
</g>
</svg>
